<svg width="90" height="88" viewBox="0 0 90 88" fill="none" xmlns="http://www.w3.org/2000/svg">
<path d="M45.4398 0.00466875C34.6849 -0.150934 24.2333 3.58752 15.995 10.5369C7.75667 17.4862 2.2817 27.1824 0.570575 37.8537C-1.14055 48.5249 1.02641 59.4586 6.67548 68.6567C12.3246 77.8548 21.0785 84.7032 31.3377 87.9504C33.4115 88.3672 35.0706 86.0748 35.0706 84.1991V78.1555C22.6276 80.8647 18.6873 72.1118 18.6873 72.1118C17.8783 69.4736 16.2864 67.1468 14.1249 65.4429C9.97721 62.5253 14.3323 62.7337 14.3323 62.7337C15.7173 62.8447 17.0573 63.2793 18.2455 64.003C19.4337 64.7266 20.4372 65.7193 21.1759 66.9018C24.7014 72.9454 32.582 72.3202 35.0706 71.2782C34.8528 69.206 35.2118 67.1138 36.1075 65.2345C22.0055 62.7337 14.3323 54.3976 14.3323 43.1439C14.1839 37.2746 16.345 31.5834 20.3464 27.3054C19.2317 25.236 18.7005 22.9 18.8101 20.5495C18.9198 18.1989 19.6661 15.9231 20.9685 13.9676C23.4732 14.0171 25.9416 14.5785 28.2234 15.6175C30.5052 16.6565 32.5527 18.1515 34.2411 20.0113C37.8422 18.7764 41.6371 18.2115 45.4398 18.3441C49.2263 18.2261 53.0071 18.7186 56.6385 19.8029C58.3521 17.9904 60.4091 16.5405 62.6884 15.5384C64.9677 14.5363 67.4234 14.0022 69.911 13.9676C71.1849 15.929 71.931 18.1889 72.0764 20.5265C72.2218 22.8642 71.7615 25.1998 70.7405 27.3054C74.6666 31.6163 76.7517 37.3037 76.5473 43.1439C76.5473 54.3976 68.8741 62.7337 54.772 65.2345C55.6678 67.1138 56.0268 69.206 55.8089 71.2782V84.1991C55.8082 84.7098 55.9111 85.2152 56.1116 85.6845C56.312 86.1538 56.6057 86.577 56.9746 86.9282C57.3435 87.2794 57.7798 87.5512 58.2569 87.727C58.7341 87.9027 59.2419 87.9788 59.7492 87.9504C69.7641 84.4585 78.2308 77.526 83.657 68.3749C89.0833 59.2237 91.1207 48.4413 89.4102 37.9283C87.6996 27.4153 82.3509 17.8466 74.3069 10.9087C66.2628 3.97089 56.0398 0.109311 45.4398 0.00466875Z" fill="url(#paint0_linear_1023_782)"/>
<defs>
<linearGradient id="paint0_linear_1023_782" x1="45" y1="0" x2="45" y2="88" gradientUnits="userSpaceOnUse">
<stop stop-color="#8F229C"/>
<stop offset="1" stop-color="#4E287B"/>
</linearGradient>
</defs>
</svg>
