<svg width="90" height="88" xmlns="http://www.w3.org/2000/svg" xml:space="preserve" version="1.1">

 <g>
  <title>Resume</title>
  <g stroke="null" id="svg_1">
   <path stroke="null" id="svg_2" d="m0.05413,88.25348c-0.61639,-0.23148 -1.05413,-0.73058 -1.05413,-1.3237l0,-85.48312c0,-0.79566 0.79506,-1.44666 1.78665,-1.44666l17.33057,0l71.21611,0c0.98267,0 1.78667,0.64376 1.78667,1.44666l0,77.92432c0,0.07957 -0.00893,0.15191 -0.01788,0.22424c-0.25013,2.84268 -1.39359,5.05606 -3.44825,6.64739c-2.05466,1.57686 -4.9401,2.45932 -8.68314,2.63293c-0.08041,0.00723 -0.15187,0.01445 -0.23227,0.01445l-77.21035,0c-0.60746,-0.00722 -1.15239,-0.2604 -1.47399,-0.63651l0,0zm39.52083,-59.98575c2.20653,3.71791 8.87969,3.84811 10.98794,0.0217c-0.57172,-0.47017 -1.00053,-0.9765 -1.42932,-1.4756c-0.07147,-0.07957 -0.14294,-0.16637 -0.20548,-0.24593c-1.01839,0.651 -2.25117,1.07053 -3.85917,1.07053c-1.73306,0 -3.04625,-0.5425 -4.11824,-1.33816c-0.06254,-0.05063 -0.12507,-0.09404 -0.1876,-0.14467c-0.15186,0.3472 -0.34838,0.7595 -0.55386,1.14286c-0.21439,0.3689 -0.42879,0.7161 -0.63427,0.96927l0,0l0,0zm11.60434,-0.3906c2.34946,1.3454 8.06676,1.67089 10.26434,2.66185c0.73253,0.32549 1.38465,0.74503 1.92066,1.31646c1.10773,1.17903 3.35892,5.46837 -0.30373,5.6926l-6.88755,0l0.84866,-7.68176c-1.84919,-0.28934 -3.80558,-0.5208 -5.8513,-1.4756c-1.25959,4.49188 -9.82661,5.13564 -12.29219,0.12297c-1.83133,0.74503 -3.61799,1.17903 -5.75304,1.43943l1.33105,7.58773l-7.39675,0c-3.66265,-0.22423 -1.40253,-4.51358 -0.30373,-5.69261c0.52707,-0.56419 1.18813,-0.98373 1.92066,-1.31645c2.18865,-0.99096 7.87916,-1.31646 10.24646,-2.64739c0.16974,-0.20976 0.35734,-0.5208 0.53601,-0.85353c0.26799,-0.49909 0.51813,-1.04883 0.67893,-1.42495c-0.66106,-0.6293 -1.22386,-1.33817 -1.76879,-2.03979l-1.78665,-2.30742c-0.65213,-0.78843 -0.99161,-1.51176 -1.0184,-2.10489c-0.00894,-0.2821 0.04466,-0.53526 0.17867,-0.75227c0.13399,-0.23147 0.33946,-0.42676 0.61639,-0.57866c0.12506,-0.07233 0.27693,-0.1302 0.43773,-0.18084c-0.11613,-1.25136 -0.1608,-2.82822 -0.0804,-4.14468c0.03574,-0.31103 0.11614,-0.6293 0.22334,-0.94033c0.4556,-1.3237 1.60799,-2.38699 3.02838,-3.12479c0.78614,-0.40506 1.64372,-0.70886 2.53706,-0.91139c0.56279,-0.1302 -0.08041,-1.16456 0.50919,-1.21519c2.84078,-0.2387 7.03943,1.43219 9.02261,3.16818c0.99159,0.868 1.61692,2.02532 1.75092,3.55155l-0.11613,3.76132l0,0c0.50026,0.12296 0.81292,0.37613 0.94692,0.78843c0.14294,0.45569 -0.00893,1.09946 -0.49133,1.98192l0,0c-0.00893,0.01447 -0.01786,0.02893 -0.0268,0.05063l-2.03679,2.71972c-0.7504,0.9982 -1.50974,2.00362 -2.50133,2.79205c0.08934,0.10126 0.17867,0.20976 0.26801,0.31826c0.40199,0.4774 0.81293,0.96203 1.33105,1.3888c-0.00893,0.0217 0.00894,0.03617 0.01786,0.05063l0,0l0,0zm-13.36419,-9.56242c-0.39305,0.01447 -0.69679,0.07957 -0.90226,0.18807c-0.11614,0.0651 -0.20547,0.14467 -0.25907,0.2387c-0.06253,0.1085 -0.08932,0.2387 -0.08039,0.3906c0.01786,0.44123 0.30373,1.0199 0.84866,1.68536l0.00893,0.00723l1.78665,2.30742c0.71466,0.92586 1.474,1.86619 2.40306,2.56059c0.90226,0.66546 1.99212,1.11393 3.43038,1.12116c1.56332,0 2.70679,-0.46293 3.63585,-1.17179c0.9648,-0.73056 1.72412,-1.73599 2.47452,-2.73418l2.01891,-2.69079c0.37521,-0.6944 0.5092,-1.15733 0.42881,-1.43219c-0.0536,-0.15913 -0.268,-0.2387 -0.65213,-0.2604c-0.0804,0 -0.16081,-0.00723 -0.2412,0c-0.08934,0 -0.1876,0.00723 -0.28587,0.01447c-0.05359,0.00723 -0.1072,0 -0.15187,-0.00723c-0.17865,0.00723 -0.36626,0 -0.55385,-0.0217l0.68785,-2.47379c-5.1277,0.651 -8.96008,-2.43039 -14.38257,-0.61483l0.39307,2.91502c-0.20547,0.00723 -0.41094,0 -0.60747,-0.0217l0,0l0,0l0,0zm24.13772,59.93511c-0.97373,0 -1.76879,-0.64376 -1.76879,-1.44665c0,-0.79568 0.78613,-1.44668 1.76879,-1.44668l14.90072,0c0.97372,0 1.76879,0.64378 1.76879,1.44668c0,0.79566 -0.78614,1.44665 -1.76879,1.44665l-14.90072,0l0,0zm-47.92705,-10.53168c-0.97373,0 -1.76879,-0.64377 -1.76879,-1.44666c0,-0.79567 0.78613,-1.44667 1.76879,-1.44667l62.97963,0c0.97373,0 1.7688,0.64378 1.7688,1.44667c0,0.79565 -0.78614,1.44666 -1.7688,1.44666l-62.97963,0l0,0zm0.28587,-10.53168c-0.97373,0 -1.76879,-0.64377 -1.76879,-1.44666c0,-0.79566 0.78613,-1.44666 1.76879,-1.44666l62.53296,0c0.97373,0 1.7688,0.64376 1.7688,1.44666c0,0.79567 -0.78614,1.44666 -1.7688,1.44666l-62.53296,0l0,0zm-0.28587,-10.53168c-0.97373,0 -1.76879,-0.64377 -1.76879,-1.44666c0,-0.79566 0.78613,-1.44666 1.76879,-1.44666l26.91597,0c0.97373,0 1.7688,0.64377 1.7688,1.44666c0,0.79565 -0.78613,1.44666 -1.7688,1.44666l-26.91597,0l0,0zm33.78566,0c-0.97372,0 -1.76878,-0.64377 -1.76878,-1.44666c0,-0.79566 0.78613,-1.44666 1.76878,-1.44666l29.03317,0c0.97373,0 1.7688,0.64377 1.7688,1.44666c0,0.79565 -0.78614,1.44666 -1.7688,1.44666l-29.03317,0l0,0zm39.74417,32.68005l0,-76.44874l-69.43839,0l-15.55284,0l0,83.1106l76.16514,0l0.03574,0c2.86758,-0.1302 5.01157,-0.75227 6.43195,-1.84451c1.40253,-1.07774 2.17973,-2.69077 2.35839,-4.81735l0,0z"/>
  </g>
 </g>
</svg>