<svg width="100" height="90" viewBox="0 0 100 90" fill="none" xmlns="http://www.w3.org/2000/svg">
<path d="M100 45.0103C100 38.3154 91.704 31.9707 78.9849 28.0362C81.9201 14.9348 80.6156 4.51133 74.8675 1.17418C73.5426 0.391393 71.9935 0.0205994 70.3017 0.0205994V4.61433C71.2393 4.61433 71.9935 4.79973 72.6254 5.14992C75.3975 6.75669 76.6001 12.8748 75.6625 20.7439C75.4382 22.6802 75.0713 24.7196 74.6229 26.8002C70.6278 25.8114 66.2658 25.0492 61.6796 24.5548C58.9278 20.7439 56.0742 17.2831 53.2002 14.255C59.8451 8.01327 66.0823 4.59373 70.3221 4.59373V0C64.7167 0 57.3787 4.03754 49.9592 11.0414C42.5397 4.07874 35.2018 0.082399 29.5964 0.082399V4.67613C33.8157 4.67613 40.0734 8.07507 46.7183 14.2756C43.8647 17.3037 41.011 20.7439 38.3 24.5548C33.6934 25.0492 29.3314 25.8114 25.3363 26.8208C24.8675 24.7608 24.521 22.7626 24.2764 20.8469C23.3184 12.9778 24.5006 6.85969 27.2523 5.23232C27.8638 4.86152 28.6588 4.69673 29.5964 4.69673V0.102998C27.8842 0.102998 26.3351 0.473792 24.9898 1.25658C19.2621 4.59373 17.978 14.9966 20.9336 28.0568C8.2552 32.0119 0 38.336 0 45.0103C0 51.7052 8.29596 58.0499 21.0151 61.9844C18.0799 75.0858 19.3844 85.5093 25.1325 88.8464C26.4574 89.6292 28.0065 90 29.7187 90C35.3241 90 42.662 85.9625 50.0815 78.9586C57.501 85.9213 64.839 89.9176 70.4443 89.9176C72.1565 89.9176 73.7057 89.5468 75.051 88.764C80.7786 85.4269 82.0628 75.024 79.1072 61.9638C91.7448 58.0293 100 51.6846 100 45.0103ZM73.4611 31.2703C72.7069 33.9277 71.7693 36.6674 70.7093 39.4072C69.8736 37.7592 68.9971 36.1112 68.0391 34.4633C67.1015 32.8153 66.1027 31.2085 65.104 29.6429C67.9984 30.0755 70.7909 30.6111 73.4611 31.2703ZM64.1256 53.209C62.5357 55.9899 60.905 58.6267 59.2132 61.078C56.1761 61.3458 53.0982 61.49 50 61.49C46.9221 61.49 43.8443 61.3458 40.8276 61.0986C39.1358 58.6473 37.4847 56.0311 35.8948 53.2708C34.3457 50.5722 32.9393 47.8325 31.6551 45.0721C32.9189 42.3117 34.3457 39.5514 35.8744 36.8528C37.4643 34.0719 39.095 31.4351 40.7868 28.9837C43.8239 28.716 46.9018 28.5718 50 28.5718C53.0779 28.5718 56.1557 28.716 59.1724 28.9631C60.8642 31.4145 62.5153 34.0307 64.1052 36.791C65.6543 39.4896 67.0607 42.2293 68.3449 44.9897C67.0607 47.7501 65.6543 50.5104 64.1256 53.209ZM70.7093 50.531C71.81 53.2914 72.7477 56.0517 73.5222 58.7297C70.852 59.3889 68.0391 59.9451 65.1243 60.3777C66.1231 58.7915 67.1219 57.1641 68.0595 55.4955C68.9972 53.8476 69.8736 52.179 70.7093 50.531ZM50.0408 72.5109C48.1451 70.5333 46.2495 68.3291 44.3742 65.919C46.2087 66.0014 48.084 66.0632 49.9796 66.0632C51.8956 66.0632 53.7913 66.022 55.6461 65.919C53.8117 68.3291 51.916 70.5333 50.0408 72.5109ZM34.8757 60.3777C31.9812 59.9451 29.1887 59.4095 26.5185 58.7503C27.2727 56.0929 28.2104 53.3532 29.2703 50.6134C30.106 52.2614 30.9825 53.9094 31.9405 55.5573C32.8985 57.2053 33.8769 58.8121 34.8757 60.3777ZM49.9389 17.5097C51.8345 19.4873 53.7301 21.6915 55.6054 24.1016C53.7709 24.0192 51.8956 23.9574 50 23.9574C48.084 23.9574 46.1883 23.9986 44.3335 24.1016C46.168 21.6915 48.0636 19.4873 49.9389 17.5097ZM34.8553 29.6429C33.8565 31.2291 32.8577 32.8565 31.9201 34.5251C30.9825 36.173 30.106 37.821 29.2703 39.469C28.1696 36.7086 27.232 33.9483 26.4574 31.2703C29.1276 30.6317 31.9405 30.0755 34.8553 29.6429ZM16.4085 55.4337C9.19283 52.3232 4.52507 48.2444 4.52507 45.0103C4.52507 41.7761 9.19283 37.6768 16.4085 34.5869C18.1614 33.8247 20.0775 33.1449 22.0546 32.5063C23.2165 36.5438 24.7452 40.7462 26.6408 45.0515C24.7656 49.3362 23.2572 53.518 22.1158 57.5349C20.0978 56.8963 18.1818 56.1959 16.4085 55.4337ZM27.3746 84.8707C24.6025 83.2639 23.3999 77.1458 24.3375 69.2767C24.5618 67.3403 24.9287 65.301 25.3771 63.2204C29.3722 64.2092 33.7342 64.9714 38.3204 65.4658C41.0722 69.2767 43.9258 72.7375 46.7998 75.7656C40.1549 82.0073 33.9177 85.4269 29.6779 85.4269C28.7607 85.4063 27.9861 85.2209 27.3746 84.8707ZM75.7236 69.1737C76.6816 77.0428 75.4994 83.1609 72.7476 84.7883C72.1362 85.1591 71.3412 85.3239 70.4036 85.3239C66.1843 85.3239 59.9266 81.9249 53.2817 75.7244C56.1354 72.6963 58.989 69.2561 61.7 65.4452C66.3066 64.9508 70.6686 64.1886 74.6637 63.1792C75.1325 65.2598 75.4994 67.2579 75.7236 69.1737ZM83.5711 55.4337C81.8182 56.1959 79.9022 56.8757 77.925 57.5143C76.7631 53.4768 75.2344 49.2744 73.3388 44.9691C75.214 40.6844 76.7224 36.5026 77.8638 32.4857C79.8818 33.1243 81.7978 33.8247 83.5915 34.5869C90.8072 37.6974 95.4749 41.7761 95.4749 45.0103C95.4545 48.2444 90.7868 52.3438 83.5711 55.4337Z" fill="#61DAFB"/>
<path d="M49.9792 54.4238C55.1238 54.4238 59.2943 50.209 59.2943 45.0098C59.2943 39.8105 55.1238 35.5957 49.9792 35.5957C44.8346 35.5957 40.6641 39.8105 40.6641 45.0098C40.6641 50.209 44.8346 54.4238 49.9792 54.4238Z" fill="#61DAFB"/>
</svg>
