<svg width="95" height="90" viewBox="0 0 95 90" fill="none" xmlns="http://www.w3.org/2000/svg">
<path d="M65.8257 62.8552C69.3316 62.4933 71.9913 59.4772 71.8704 55.8579C71.7495 52.2386 68.7272 49.3432 65.1004 49.3432H64.8586C61.1109 49.4638 58.2095 52.6005 58.3304 56.3405C58.4513 58.1501 59.1766 59.7185 60.2647 60.8043C56.1543 68.8874 49.8679 74.7989 40.4382 79.7453C34.0309 83.1233 27.3818 84.3298 20.7327 83.4853C15.2925 82.7614 11.0612 80.3485 8.4016 76.3673C4.53303 70.4558 4.17035 64.0617 7.43446 57.6676C9.73142 53.0831 13.3582 49.7051 15.6552 48.0161C15.1716 46.4477 14.4462 43.7936 14.0836 41.8633C-3.4459 54.5308 -1.63251 71.6622 3.68678 79.7453C7.67624 85.7775 15.7761 89.5174 24.7221 89.5174C27.14 89.5174 29.5579 89.2762 31.9757 88.6729C47.45 85.6569 59.1766 76.4879 65.8257 62.8552Z" fill="#764ABC"/>
<path d="M87.1014 47.895C77.9136 37.1578 64.3736 31.2463 48.8993 31.2463H46.965C45.8769 29.0747 43.58 27.627 41.0412 27.627H40.7994C37.0518 27.7476 34.1503 30.8843 34.2712 34.6243C34.3921 38.2436 37.4144 41.139 41.0412 41.139H41.283C43.9427 41.0184 46.2396 39.3294 47.2068 37.0371H49.3828C58.5707 37.0371 67.275 39.6913 75.133 44.879C81.1777 48.8602 85.5298 54.0479 87.9477 60.3213C90.0028 65.3883 89.8819 70.3347 87.7059 74.5572C84.3209 80.9513 78.6389 84.45 71.1436 84.45C66.3078 84.45 61.7139 83.0023 59.2961 81.9165C57.9662 83.1229 55.5484 85.0532 53.8559 86.2597C59.0543 88.6725 64.3736 89.9996 69.4511 89.9996C81.0568 89.9996 89.6402 83.6055 92.9043 77.2114C96.4102 70.2141 96.1684 58.1497 87.1014 47.895Z" fill="#764ABC"/>
<path d="M25.6896 64.9062C25.8105 68.5255 28.8328 71.4209 32.4596 71.4209H32.7014C36.449 71.3003 39.3505 68.1635 39.2296 64.4236C39.1087 60.8043 36.0864 57.9088 32.4596 57.9088H32.2178C31.976 57.9088 31.6133 57.9089 31.3715 58.0295C26.4149 49.8257 24.3597 40.8981 25.0851 31.2467C25.5687 24.008 27.9865 17.7346 32.2178 12.5469C35.7237 8.08311 42.4937 5.91153 47.0876 5.79089C59.9023 5.5496 65.3424 21.4745 65.7051 27.8686C67.2767 28.2306 69.9364 29.0751 71.7498 29.6783C70.299 10.1341 58.2098 0 46.604 0C35.7237 0 25.6896 7.84182 21.7001 19.4236C16.139 34.866 19.7658 49.7051 26.5358 61.4075C25.9314 62.252 25.5687 63.5791 25.6896 64.9062Z" fill="#764ABC"/>
</svg>
