<svg width="118" height="21" viewBox="0 0 118 21" fill="none" xmlns="http://www.w3.org/2000/svg">
<path d="M0.264205 1.45455H4.05682L8.0625 11.2273H8.23295L12.2386 1.45455H16.0312V16H13.0483V6.53267H12.9276L9.16335 15.929H7.1321L3.3679 6.49716H3.24716V16H0.264205V1.45455ZM20.3761 20.0909C19.9925 20.0909 19.6327 20.0601 19.2965 19.9986C18.9651 19.9418 18.6905 19.8684 18.4727 19.7784L19.1545 17.5199C19.5096 17.6288 19.8292 17.688 20.1133 17.6974C20.4021 17.7069 20.6507 17.6406 20.859 17.4986C21.0721 17.3565 21.2449 17.1151 21.3775 16.7741L21.555 16.3125L17.6417 5.09091H20.8235L23.082 13.1023H23.1957L25.4755 5.09091H28.6786L24.4386 17.179C24.235 17.7661 23.958 18.2775 23.6076 18.7131C23.262 19.1534 22.824 19.492 22.2937 19.7287C21.7634 19.9702 21.1242 20.0909 20.3761 20.0909ZM34.9126 16V1.45455H40.6513C41.7545 1.45455 42.6944 1.66525 43.4709 2.08665C44.2474 2.50331 44.8393 3.08333 45.2464 3.8267C45.6584 4.56534 45.8643 5.41761 45.8643 6.38352C45.8643 7.34943 45.656 8.2017 45.2393 8.94034C44.8227 9.67898 44.219 10.2543 43.4283 10.6662C42.6423 11.0781 41.6906 11.2841 40.5732 11.2841H36.9155V8.8196H40.076C40.6679 8.8196 41.1555 8.7178 41.5391 8.5142C41.9273 8.30587 42.2161 8.01941 42.4055 7.65483C42.5997 7.28551 42.6967 6.86174 42.6967 6.38352C42.6967 5.90057 42.5997 5.47917 42.4055 5.11932C42.2161 4.75473 41.9273 4.47301 41.5391 4.27415C41.1508 4.07055 40.6584 3.96875 40.0618 3.96875H37.9879V16H34.9126ZM52.5582 16.2131C51.455 16.2131 50.5009 15.9787 49.696 15.5099C48.8958 15.0365 48.2779 14.3783 47.8423 13.5355C47.4067 12.688 47.1889 11.7055 47.1889 10.5881C47.1889 9.46117 47.4067 8.47633 47.8423 7.63352C48.2779 6.78598 48.8958 6.12784 49.696 5.65909C50.5009 5.18561 51.455 4.94886 52.5582 4.94886C53.6615 4.94886 54.6132 5.18561 55.4134 5.65909C56.2183 6.12784 56.8385 6.78598 57.2741 7.63352C57.7098 8.47633 57.9276 9.46117 57.9276 10.5881C57.9276 11.7055 57.7098 12.688 57.2741 13.5355C56.8385 14.3783 56.2183 15.0365 55.4134 15.5099C54.6132 15.9787 53.6615 16.2131 52.5582 16.2131ZM52.5724 13.8693C53.0743 13.8693 53.4934 13.7273 53.8295 13.4432C54.1657 13.1544 54.419 12.7614 54.5895 12.2642C54.7647 11.767 54.8523 11.2012 54.8523 10.5668C54.8523 9.93229 54.7647 9.36648 54.5895 8.86932C54.419 8.37216 54.1657 7.97917 53.8295 7.69034C53.4934 7.40151 53.0743 7.2571 52.5724 7.2571C52.0658 7.2571 51.6397 7.40151 51.294 7.69034C50.9531 7.97917 50.6951 8.37216 50.5199 8.86932C50.3494 9.36648 50.2642 9.93229 50.2642 10.5668C50.2642 11.2012 50.3494 11.767 50.5199 12.2642C50.6951 12.7614 50.9531 13.1544 51.294 13.4432C51.6397 13.7273 52.0658 13.8693 52.5724 13.8693ZM59.8949 16V5.09091H62.8281V6.99432H62.9418C63.1406 6.31723 63.4744 5.80587 63.9432 5.46023C64.4119 5.10985 64.9517 4.93466 65.5625 4.93466C65.714 4.93466 65.8774 4.94413 66.0526 4.96307C66.2277 4.98201 66.3816 5.00805 66.5142 5.04119V7.72585C66.3722 7.68324 66.1757 7.64536 65.9247 7.61222C65.6738 7.57907 65.4441 7.5625 65.2358 7.5625C64.7907 7.5625 64.393 7.65956 64.0426 7.85369C63.697 8.04309 63.4223 8.30824 63.2188 8.64915C63.0199 8.99006 62.9205 9.38305 62.9205 9.82812V16H59.8949ZM74.4279 5.09091V7.36364H67.8583V5.09091H74.4279ZM69.3498 2.47727H72.3754V12.6477C72.3754 12.9271 72.418 13.1449 72.5032 13.3011C72.5884 13.4527 72.7068 13.5592 72.8583 13.6207C73.0146 13.6823 73.1945 13.7131 73.3981 13.7131C73.5401 13.7131 73.6822 13.7012 73.8242 13.6776C73.9663 13.6491 74.0752 13.6278 74.1509 13.6136L74.6268 15.8651C74.4753 15.9124 74.2622 15.9669 73.9876 16.0284C73.7129 16.0947 73.3791 16.1349 72.9862 16.1491C72.257 16.1776 71.6178 16.0805 71.0685 15.858C70.524 15.6354 70.1003 15.2898 69.7972 14.821C69.4942 14.3523 69.3451 13.7604 69.3498 13.0455V2.47727ZM82.2653 5.09091V7.36364H75.5323V5.09091H82.2653ZM77.0735 16V4.30256C77.0735 3.51184 77.2274 2.85606 77.5352 2.33523C77.8477 1.81439 78.2738 1.42377 78.8136 1.16335C79.3533 0.902935 79.9665 0.772726 80.6531 0.772726C81.1171 0.772726 81.5408 0.808238 81.9244 0.879261C82.3126 0.950284 82.6014 1.0142 82.7908 1.07102L82.2511 3.34375C82.1327 3.30587 81.9859 3.27036 81.8107 3.23722C81.6403 3.20407 81.4651 3.1875 81.2852 3.1875C80.8401 3.1875 80.5299 3.29167 80.3548 3.5C80.1796 3.7036 80.092 3.99006 80.092 4.35938V16H77.0735ZM88.652 16.2131C87.5488 16.2131 86.5947 15.9787 85.7898 15.5099C84.9896 15.0365 84.3717 14.3783 83.9361 13.5355C83.5005 12.688 83.2827 11.7055 83.2827 10.5881C83.2827 9.46117 83.5005 8.47633 83.9361 7.63352C84.3717 6.78598 84.9896 6.12784 85.7898 5.65909C86.5947 5.18561 87.5488 4.94886 88.652 4.94886C89.7552 4.94886 90.7069 5.18561 91.5071 5.65909C92.312 6.12784 92.9323 6.78598 93.3679 7.63352C93.8035 8.47633 94.0213 9.46117 94.0213 10.5881C94.0213 11.7055 93.8035 12.688 93.3679 13.5355C92.9323 14.3783 92.312 15.0365 91.5071 15.5099C90.7069 15.9787 89.7552 16.2131 88.652 16.2131ZM88.6662 13.8693C89.1681 13.8693 89.5871 13.7273 89.9233 13.4432C90.2595 13.1544 90.5128 12.7614 90.6832 12.2642C90.8584 11.767 90.946 11.2012 90.946 10.5668C90.946 9.93229 90.8584 9.36648 90.6832 8.86932C90.5128 8.37216 90.2595 7.97917 89.9233 7.69034C89.5871 7.40151 89.1681 7.2571 88.6662 7.2571C88.1596 7.2571 87.7334 7.40151 87.3878 7.69034C87.0469 7.97917 86.7888 8.37216 86.6136 8.86932C86.4432 9.36648 86.358 9.93229 86.358 10.5668C86.358 11.2012 86.4432 11.767 86.6136 12.2642C86.7888 12.7614 87.0469 13.1544 87.3878 13.4432C87.7334 13.7273 88.1596 13.8693 88.6662 13.8693ZM99.0142 1.45455V16H95.9886V1.45455H99.0142ZM101.438 16V5.09091H104.463V16H101.438ZM102.958 3.68466C102.508 3.68466 102.122 3.53551 101.8 3.23722C101.483 2.93419 101.324 2.57197 101.324 2.15057C101.324 1.7339 101.483 1.37642 101.8 1.07812C102.122 0.775094 102.508 0.623579 102.958 0.623579C103.408 0.623579 103.791 0.775094 104.108 1.07812C104.43 1.37642 104.591 1.7339 104.591 2.15057C104.591 2.57197 104.43 2.93419 104.108 3.23722C103.791 3.53551 103.408 3.68466 102.958 3.68466ZM111.816 16.2131C110.713 16.2131 109.759 15.9787 108.954 15.5099C108.154 15.0365 107.536 14.3783 107.1 13.5355C106.665 12.688 106.447 11.7055 106.447 10.5881C106.447 9.46117 106.665 8.47633 107.1 7.63352C107.536 6.78598 108.154 6.12784 108.954 5.65909C109.759 5.18561 110.713 4.94886 111.816 4.94886C112.919 4.94886 113.871 5.18561 114.671 5.65909C115.476 6.12784 116.096 6.78598 116.532 7.63352C116.968 8.47633 117.185 9.46117 117.185 10.5881C117.185 11.7055 116.968 12.688 116.532 13.5355C116.096 14.3783 115.476 15.0365 114.671 15.5099C113.871 15.9787 112.919 16.2131 111.816 16.2131ZM111.83 13.8693C112.332 13.8693 112.751 13.7273 113.087 13.4432C113.424 13.1544 113.677 12.7614 113.847 12.2642C114.022 11.767 114.11 11.2012 114.11 10.5668C114.11 9.93229 114.022 9.36648 113.847 8.86932C113.677 8.37216 113.424 7.97917 113.087 7.69034C112.751 7.40151 112.332 7.2571 111.83 7.2571C111.324 7.2571 110.897 7.40151 110.552 7.69034C110.211 7.97917 109.953 8.37216 109.778 8.86932C109.607 9.36648 109.522 9.93229 109.522 10.5668C109.522 11.2012 109.607 11.767 109.778 12.2642C109.953 12.7614 110.211 13.1544 110.552 13.4432C110.897 13.7273 111.324 13.8693 111.83 13.8693Z" fill="white"/>
</svg>
