<svg width="48" height="48" viewBox="0 0 48 48" fill="none" xmlns="http://www.w3.org/2000/svg">
<g clip-path="url(#clip0_968_836)">
<path d="M43 0H5C2.23858 0 0 2.23858 0 5V43C0 45.7614 2.23858 48 5 48H43C45.7614 48 48 45.7614 48 43V5C48 2.23858 45.7614 0 43 0Z" fill="#222222"/>
<path d="M15.6513 35V13.1818H24.6641C26.2976 13.1818 27.7074 13.5014 28.8935 14.1406C30.0866 14.7727 31.0064 15.657 31.6527 16.7933C32.299 17.9226 32.6222 19.2365 32.6222 20.7351C32.6222 22.2408 32.2919 23.5582 31.6314 24.6875C30.978 25.8097 30.044 26.6797 28.8295 27.2976C27.6151 27.9155 26.1733 28.2244 24.5043 28.2244H18.9432V24.0696H23.5241C24.3196 24.0696 24.9837 23.9311 25.5163 23.6541C26.0561 23.3771 26.4645 22.9901 26.7415 22.4929C27.0185 21.9886 27.157 21.4027 27.157 20.7351C27.157 20.0604 27.0185 19.478 26.7415 18.9879C26.4645 18.4908 26.0561 18.1072 25.5163 17.8374C24.9766 17.5675 24.3125 17.4325 23.5241 17.4325H20.9247V35H15.6513Z" fill="#61DAFB"/>
</g>
<defs>
<clipPath id="clip0_968_836">
<rect width="48" height="48" fill="white"/>
</clipPath>
</defs>
</svg>
