<svg width="28" height="29" viewBox="0 0 28 29" fill="none" xmlns="http://www.w3.org/2000/svg">
<path d="M27.1927 6.02969L21.9299 0.801306C20.8545 -0.267102 19.1155 -0.267102 18.0401 0.801306L12.7773 6.02969C11.7018 7.0981 11.7018 8.82573 12.7773 9.89414L18.0401 15.1225C19.1155 16.1909 20.8545 16.1909 21.9299 15.1225L27.1927 9.89414C28.2681 8.82573 28.2681 7.0981 27.1927 6.02969Z" fill="#4BB7FF"/>
<path d="M11.3402 17.037C14.1751 17.037 16.4733 14.7539 16.4733 11.9375C16.4733 9.12105 14.1751 6.83789 11.3402 6.83789C8.50521 6.83789 6.20703 9.12105 6.20703 11.9375C6.20703 14.7539 8.50521 17.037 11.3402 17.037Z" fill="url(#paint0_linear_992_182)"/>
<path d="M11.341 28.9994C14.9525 28.9994 18.358 28.5448 21.367 27.7416C22.4119 27.4612 22.9611 26.3208 22.5225 25.3358C20.6271 21.0697 16.333 18.0918 11.3372 18.0918C6.34137 18.0918 2.04724 21.0697 0.151881 25.3358C-0.286683 26.3208 0.262491 27.4612 1.31123 27.7416C4.32398 28.5448 7.72953 28.9994 11.341 28.9994Z" fill="url(#paint1_linear_992_182)"/>
<path d="M16.834 7.95898H23.1493" stroke="white" stroke-width="3" stroke-miterlimit="10"/>
<path d="M19.9902 4.82422V11.0983" stroke="white" stroke-width="3" stroke-miterlimit="10"/>
<defs>
<linearGradient id="paint0_linear_992_182" x1="13.9064" y1="16.3559" x2="8.82178" y2="7.49121" gradientUnits="userSpaceOnUse">
<stop stop-color="#4085FF"/>
<stop offset="1" stop-color="#4BB7FF"/>
</linearGradient>
<linearGradient id="paint1_linear_992_182" x1="14.6416" y1="31.6689" x2="7.15493" y2="18.6163" gradientUnits="userSpaceOnUse">
<stop stop-color="#4085FF"/>
<stop offset="1" stop-color="#4BB7FF"/>
</linearGradient>
</defs>
</svg>
