<svg width="93" height="70" viewBox="0 0 93 70" fill="none" xmlns="http://www.w3.org/2000/svg">
<path d="M80.0589 40.196C76.8072 40.2142 73.9915 40.9986 71.63 42.166C70.7581 40.4331 69.8861 38.9191 69.7408 37.7881C69.5773 36.4748 69.3775 35.6722 69.5773 34.1034C69.7771 32.5347 70.6854 30.3093 70.6854 30.1269C70.6672 29.9627 70.4856 29.1601 68.6145 29.1419C66.7434 29.1236 65.1267 29.5067 64.945 29.9992C64.7634 30.4917 64.4001 31.6227 64.1639 32.7901C63.8369 34.5047 60.4218 40.579 58.4781 43.7712C57.8423 42.5308 57.2973 41.4364 57.1883 40.5608C57.0248 39.2474 56.825 38.4448 57.0248 36.8761C57.2246 35.3074 58.1329 33.0819 58.1329 32.8995C58.1148 32.7354 57.9331 31.9327 56.062 31.9145C54.191 31.8963 52.5742 32.2793 52.3926 32.7718C52.2109 33.2643 52.0111 34.4318 51.6115 35.5627C51.23 36.6937 46.6886 46.8357 45.5078 49.4807C44.9083 50.8305 44.3815 51.9067 44 52.6364C43.6186 53.366 43.9819 52.6911 43.9456 52.7641C43.6186 53.3843 43.4369 53.7309 43.4369 53.7309V53.7491C43.1826 54.2051 42.9101 54.6429 42.7829 54.6429C42.6921 54.6429 42.5105 53.4208 42.8193 51.7426C43.4914 48.222 45.1263 42.7315 45.1082 42.5308C45.1082 42.4396 45.417 41.4728 44.0545 40.9803C42.7285 40.4878 42.2561 41.3087 42.1472 41.3087C42.0382 41.3087 41.9473 41.6005 41.9473 41.6005C41.9473 41.6005 43.4187 35.4168 39.1317 35.4168C36.4431 35.4168 32.7373 38.3536 30.9026 41.0351C29.74 41.6735 27.2695 43.0233 24.6536 44.4644C23.6545 45.0116 22.6191 45.5953 21.6381 46.1243L21.4383 45.9054C16.2429 40.3419 6.63331 36.4018 7.03295 28.923C7.17828 26.205 8.12289 19.0363 25.4893 10.3535C39.713 3.23951 51.1028 5.1913 53.0829 9.53269C55.8985 15.7347 46.9974 27.263 32.2105 28.923C26.5792 29.5614 23.6182 27.3725 22.8734 26.5516C22.0923 25.6943 21.9833 25.6578 21.6926 25.822C21.2203 26.0774 21.511 26.8435 21.6926 27.2995C22.1286 28.4487 23.9452 30.4917 27.0333 31.5132C29.74 32.407 36.3523 32.8995 44.3452 29.7985C53.3009 26.3145 60.2946 16.6467 58.2419 8.56591C56.1529 0.339174 42.565 -2.36051 29.7218 2.21801C22.0741 4.95417 13.7906 9.22259 7.83224 14.8226C0.747637 21.4624 -0.378633 27.263 0.0936738 29.6709C1.74675 38.2624 13.5363 43.8624 18.2593 48.0032C18.0232 48.1308 17.8052 48.2585 17.6054 48.368C15.2438 49.5354 6.25183 54.2599 3.99929 59.2579C1.4561 64.9127 4.39893 68.9804 6.36082 69.5276C12.4282 71.2241 18.6408 68.1778 22.0014 63.1615C25.3439 58.1452 24.9443 51.6331 23.4002 48.6598L23.3457 48.5504L25.1986 47.4559C26.3975 46.7445 27.5783 46.0878 28.6137 45.5224C28.0324 47.1093 27.6146 48.9882 27.3966 51.7243C27.1423 54.9348 28.4503 59.0937 30.176 60.7354C30.9389 61.4468 31.8472 61.4651 32.4104 61.4651C34.4086 61.4651 35.3169 59.8051 36.316 57.8169C37.5512 55.3908 38.6412 52.5817 38.6412 52.5817C38.6412 52.5817 37.2788 60.1882 41.0027 60.1882C42.3651 60.1882 43.7276 58.4188 44.3452 57.5068V57.525C44.3452 57.525 44.3815 57.4703 44.4542 57.3426C44.5995 57.1237 44.6722 56.996 44.6722 56.996V56.9595C45.2171 56.011 46.4342 53.8403 48.2508 50.2468C50.5942 45.6136 52.8467 39.8129 52.8467 39.8129C52.8467 39.8129 53.0647 41.2357 53.7368 43.5706C54.1365 44.9569 55.0084 46.4709 55.6806 47.9484C55.1356 48.7146 54.8086 49.1523 54.8086 49.1523L54.8268 49.1706C54.3908 49.7543 53.9003 50.3745 53.3917 50.9947C51.5388 53.2201 49.3226 55.7556 49.0319 56.4853C48.6868 57.3426 48.7594 57.981 49.4316 58.4918C49.922 58.8566 50.794 58.9296 51.7205 58.8566C53.3917 58.7472 54.5543 58.3276 55.1356 58.0722C56.0439 57.7439 57.0793 57.2514 58.0784 56.5218C59.895 55.1719 61.0031 53.2566 60.8941 50.7028C60.8396 49.2983 60.3855 47.9119 59.8223 46.5986C59.9858 46.3615 60.1493 46.1243 60.3128 45.8689C63.183 41.6553 65.3992 37.022 65.3992 37.022C65.3992 37.022 65.6172 38.4448 66.2893 40.7797C66.6344 41.9654 67.3247 43.2605 67.9424 44.5373C65.2539 46.7445 63.5645 49.2983 62.9832 50.9765C61.9114 54.0774 62.747 55.482 64.3274 55.8103C65.0359 55.9563 66.0531 55.6279 66.8161 55.2996C67.7607 54.9895 68.9052 54.4605 69.9588 53.6761C71.7753 52.3263 73.5192 50.4475 73.4284 47.912C73.3739 46.7445 73.0651 45.5953 72.6473 44.5009C74.9361 43.5523 77.8971 43.0051 81.6574 43.4611C89.7412 44.4097 91.3397 49.4807 91.0309 51.5967C90.7221 53.7126 89.0327 54.8801 88.4696 55.2449C87.9064 55.5915 87.7248 55.7191 87.7793 55.9745C87.8519 56.3576 88.1062 56.3393 88.5967 56.2664C89.2688 56.1569 92.8475 54.5335 92.9928 50.6299C93.2108 45.6136 88.4696 40.1412 80.0589 40.196ZM17.7144 61.3009C15.044 64.2377 11.2837 65.3504 9.68514 64.4019C7.9594 63.3986 8.63153 59.0755 11.9195 55.9563C13.9177 54.0592 16.5154 52.3081 18.223 51.2318C18.6045 50.9947 19.1858 50.6481 19.8761 50.2286C19.9851 50.1556 20.0577 50.1191 20.0577 50.1191C20.1849 50.0462 20.3302 49.955 20.4755 49.8638C21.6926 54.3146 20.53 58.2182 17.7144 61.3009ZM37.2424 47.9667C36.316 50.2468 34.3541 56.1022 33.1733 55.7739C32.156 55.5002 31.5384 51.0677 32.9735 46.6898C33.7001 44.4826 35.2442 41.8559 36.1525 40.8344C37.6239 39.1927 39.2225 38.6455 39.6221 39.3204C40.0944 40.196 37.8237 46.5439 37.2424 47.9667ZM53.3554 55.7009C52.9557 55.9016 52.5924 56.0475 52.4289 55.938C52.3017 55.8651 52.5924 55.5915 52.5924 55.5915C52.5924 55.5915 54.6088 53.4208 55.4081 52.4175C55.8622 51.8338 56.4072 51.1589 56.9885 50.3927V50.6116C56.9885 53.2384 54.4816 54.9895 53.3554 55.7009ZM65.7807 52.8553C65.49 52.6364 65.5263 51.9615 66.5073 49.8455C66.8888 49.0064 67.7607 47.6018 69.2685 46.2702C69.4501 46.8175 69.5591 47.3465 69.541 47.839C69.5228 51.1224 67.1976 52.3445 65.7807 52.8553Z" fill="#CF649A"/>
</svg>
